<svg width="22" height="21" viewBox="0 0 22 21" fill="none" xmlns="http://www.w3.org/2000/svg">
<path d="M15.4558 10.0515L11.7356 8.00089L13.611 3.7203C13.6765 3.59317 13.707 3.45232 13.6996 3.31094C13.6922 3.16955 13.6472 3.03226 13.5689 2.91191C13.4905 2.79155 13.3814 2.69207 13.2516 2.62276C13.1218 2.55346 12.9757 2.5166 12.8268 2.51563C12.629 2.51492 12.4367 2.57784 12.2812 2.69416L12.2198 2.74422L5.64087 8.66747C5.54197 8.75679 5.46628 8.86678 5.4198 8.98874C5.37332 9.11069 5.35732 9.24125 5.37306 9.3701C5.38881 9.49895 5.43586 9.62255 5.51051 9.73111C5.58516 9.83968 5.68535 9.93023 5.80315 9.99561L9.5242 12.0479L7.62683 16.3777C7.54857 16.5543 7.53671 16.7512 7.59323 16.9351C7.64976 17.1191 7.77123 17.2789 7.93717 17.3877C8.10311 17.4964 8.30339 17.5474 8.50427 17.5321C8.70514 17.5168 8.89434 17.4362 9.03999 17.3037L15.6189 11.3788C15.7176 11.2894 15.7931 11.1794 15.8394 11.0575C15.8857 10.9356 15.9016 10.8052 15.8858 10.6764C15.8699 10.5477 15.8229 10.4242 15.7482 10.3158C15.6736 10.2073 15.5735 10.1168 15.4558 10.0515Z" fill="white"/>
</svg>
