<svg width="28" height="28" viewBox="0 0 28 28" fill="none" xmlns="http://www.w3.org/2000/svg">
<path fill-rule="evenodd" clip-rule="evenodd" d="M2.03645 14.1406C2.03645 9.04751 2.03645 6.50095 3.2501 4.66674C3.79205 3.84768 4.4935 3.14622 5.31257 2.60427C7.14678 1.39062 9.69334 1.39062 14.7865 1.39062C19.8796 1.39062 22.4261 1.39062 24.2603 2.60427C25.0794 3.14622 25.7809 3.84768 26.3228 4.66674C27.5365 6.50095 27.5365 9.04751 27.5365 14.1406C27.5365 19.2337 27.5365 21.7803 26.3228 23.6145C25.7809 24.4336 25.0794 25.135 24.2603 25.677C22.4261 26.8906 19.8796 26.8906 14.7865 26.8906C9.69334 26.8906 7.14678 26.8906 5.31257 25.677C4.4935 25.135 3.79205 24.4336 3.2501 23.6145C2.03645 21.7803 2.03645 19.2337 2.03645 14.1406ZM21.3866 14.1399C21.3866 17.7854 18.4313 20.7407 14.7857 20.7407C11.1402 20.7407 8.18489 17.7854 8.18489 14.1399C8.18489 10.4944 11.1402 7.53906 14.7857 7.53906C18.4313 7.53906 21.3866 10.4944 21.3866 14.1399ZM14.7857 18.5075C17.1979 18.5075 19.1533 16.552 19.1533 14.1399C19.1533 11.7277 17.1979 9.7723 14.7857 9.7723C12.3736 9.7723 10.4181 11.7277 10.4181 14.1399C10.4181 16.552 12.3736 18.5075 14.7857 18.5075ZM21.6421 8.7602C22.4987 8.7602 23.1931 8.0658 23.1931 7.2092C23.1931 6.35261 22.4987 5.6582 21.6421 5.6582C20.7855 5.6582 20.0911 6.35261 20.0911 7.2092C20.0911 8.0658 20.7855 8.7602 21.6421 8.7602Z" fill="#414142"/>
</svg>
