<svg width="28" height="27" viewBox="0 0 28 27" fill="none" xmlns="http://www.w3.org/2000/svg">
<path d="M2.11978 4.52737C2.11978 3.70965 2.40695 3.03505 2.98127 2.50356C3.55558 1.97204 4.30222 1.7063 5.22113 1.7063C6.12365 1.7063 6.85385 1.96795 7.41177 2.49129C7.98609 3.03097 8.27326 3.73418 8.27326 4.60096C8.27326 5.38595 7.99431 6.0401 7.43638 6.56344C6.86207 7.10312 6.10723 7.37296 5.17191 7.37296H5.14729C4.24477 7.37296 3.51458 7.10312 2.95665 6.56344C2.39873 6.02376 2.11978 5.34506 2.11978 4.52737ZM2.43976 25.992V9.60529H7.90405V25.992H2.43976ZM10.9316 25.992H16.3958V16.8419C16.3958 16.2695 16.4615 15.828 16.5928 15.5173C16.8225 14.9612 17.1712 14.491 17.6388 14.1067C18.1065 13.7224 18.6931 13.5302 19.3987 13.5302C21.2366 13.5302 22.1555 14.765 22.1555 17.2344V25.992H27.6198V16.5966C27.6198 14.1762 27.0455 12.3405 25.8968 11.0894C24.7481 9.83833 23.2303 9.21279 21.3432 9.21279C19.2264 9.21279 17.5773 10.1204 16.3958 11.9357V11.9848H16.3712L16.3958 11.9357V9.60529H10.9316C10.9644 10.1286 10.9808 11.7558 10.9808 14.487C10.9808 17.2181 10.9644 21.0531 10.9316 25.992Z" fill="#414142"/>
</svg>
