<svg width="18" height="18" viewBox="0 0 18 18" fill="none" xmlns="http://www.w3.org/2000/svg">
<path d="M1.7768 12.8817C1.02517 9.87188 0.649364 8.36784 1.43865 7.3558C2.22794 6.34375 3.77761 6.34375 6.87608 6.34375H10.932C14.0314 6.34375 15.5802 6.34375 16.3694 7.3558C17.1587 8.36784 16.7829 9.87275 16.0313 12.8817C15.553 14.7962 15.3147 15.753 14.6016 16.3107C13.8886 16.8676 12.9031 16.8676 10.932 16.8676H6.87608C4.90504 16.8676 3.91953 16.8676 3.20645 16.3107C2.49337 15.753 2.25422 14.7962 1.7768 12.8817Z" stroke="white" stroke-width="1.25"/>
<path d="M15.4737 6.78242L14.8517 4.49787C14.6117 3.61649 14.4917 3.17624 14.2455 2.84387C14.0001 2.51365 13.6668 2.25927 13.2837 2.10983C12.8982 1.95898 12.4427 1.95898 11.5316 1.95898M2.3335 6.78242L2.95547 4.49787C3.19549 3.61649 3.31551 3.17624 3.56167 2.84387C3.80711 2.51365 4.14044 2.25927 4.52353 2.10983C4.90898 1.95898 5.36451 1.95898 6.27556 1.95898" stroke="white" stroke-width="1.25"/>
<path d="M6.27661 1.95902C6.27661 1.72643 6.36891 1.50336 6.53319 1.3389C6.69747 1.17443 6.92029 1.08203 7.15263 1.08203H10.6567C10.889 1.08203 11.1118 1.17443 11.2761 1.3389C11.4404 1.50336 11.5327 1.72643 11.5327 1.95902C11.5327 2.19161 11.4404 2.41468 11.2761 2.57914C11.1118 2.74361 10.889 2.83601 10.6567 2.83601H7.15263C6.92029 2.83601 6.69747 2.74361 6.53319 2.57914C6.36891 2.41468 6.27661 2.19161 6.27661 1.95902Z" stroke="white" stroke-width="1.25"/>
</svg>
