<svg width="28" height="22" viewBox="0 0 28 22" fill="none" xmlns="http://www.w3.org/2000/svg">
<path d="M18.9914 0.800735V0.796143H20.1871L20.624 0.883398C20.9153 0.940045 21.1797 1.01428 21.4173 1.10613C21.6549 1.19798 21.8848 1.30514 22.1071 1.4276C22.3294 1.55005 22.531 1.67483 22.7118 1.80187C22.8912 1.92741 23.0522 2.06059 23.1947 2.20141C23.3357 2.34378 23.5557 2.38051 23.8546 2.31163C24.1535 2.24274 24.4754 2.14706 24.8203 2.0246C25.1653 1.90215 25.5063 1.76438 25.8436 1.61129C26.1808 1.4582 26.3862 1.36101 26.4598 1.31967C26.5319 1.27683 26.5702 1.25387 26.5748 1.25079L26.5794 1.2439L26.6024 1.23242L26.6254 1.22094L26.6483 1.20946L26.6713 1.19798L26.6759 1.19109L26.6828 1.1865L26.6898 1.1819L26.6943 1.17501L26.7173 1.16813L26.7403 1.16353L26.7357 1.19798L26.7288 1.23242L26.7173 1.26686L26.7058 1.3013L26.6943 1.32427L26.6828 1.34723L26.6713 1.38167C26.6637 1.40463 26.656 1.43524 26.6483 1.47352C26.6407 1.5118 26.5679 1.66486 26.4299 1.93276C26.2919 2.20065 26.1195 2.47236 25.9125 2.74791C25.7056 3.02345 25.5201 3.23162 25.3561 3.37247C25.1906 3.51483 25.081 3.61433 25.0273 3.67097C24.9736 3.72914 24.9085 3.78271 24.8318 3.83171L24.7169 3.90748L24.6939 3.91896L24.6709 3.93044L24.6663 3.93733L24.6594 3.94192L24.6525 3.94652L24.6479 3.95341L24.6249 3.96489L24.6019 3.97637L24.5973 3.98326L24.5904 3.98785L24.5835 3.99244L24.5789 3.99933L24.5743 4.00622L24.5674 4.01081L24.5605 4.0154L24.5559 4.02229H24.6709L25.3147 3.88452C25.7439 3.79267 26.154 3.6817 26.5449 3.55157L27.1657 3.34491L27.2347 3.32195L27.2692 3.31047L27.2922 3.29899L27.3152 3.28751L27.3382 3.27603L27.3611 3.26455L27.4071 3.25766L27.4531 3.25307V3.29899L27.4416 3.30358L27.4301 3.31047L27.4256 3.31736L27.4186 3.32195L27.4117 3.32655L27.4071 3.33343L27.4026 3.34032L27.3956 3.34491L27.3887 3.34951L27.3841 3.3564L27.3796 3.36328L27.3726 3.36788L27.3611 3.39084L27.3497 3.4138L27.3428 3.41839C27.3397 3.42299 27.2424 3.55309 27.0507 3.80875C26.8591 4.06592 26.7557 4.19602 26.7403 4.1991C26.725 4.20369 26.7035 4.22665 26.6759 4.26798C26.6499 4.31083 26.4874 4.48153 26.1885 4.78003C25.8896 5.07854 25.5968 5.34412 25.3101 5.57681C25.022 5.81102 24.8763 6.09881 24.8733 6.44018C24.8687 6.78002 24.851 7.16426 24.8203 7.59287C24.7897 8.0215 24.7322 8.48455 24.6479 8.98206C24.5636 9.47958 24.4333 10.0421 24.257 10.6698C24.0807 11.2974 23.8661 11.9097 23.6132 12.5067C23.3602 13.1037 23.0958 13.6395 22.8199 14.1141C22.544 14.5886 22.291 14.9904 22.0611 15.3196C21.8312 15.6487 21.5974 15.9587 21.3598 16.2495C21.1222 16.5404 20.8218 16.868 20.4585 17.2323C20.0936 17.5951 19.8944 17.7941 19.8606 17.8293C19.8254 17.863 19.6752 17.9885 19.4099 18.2059C19.1463 18.4248 18.8627 18.6437 18.5592 18.8626C18.2572 19.08 17.9797 19.2614 17.7268 19.4068C17.4739 19.5522 17.1688 19.7183 16.8116 19.905C16.456 20.0933 16.0712 20.2678 15.6574 20.4286C15.2435 20.5893 14.8066 20.7386 14.3467 20.8763C13.8868 21.0141 13.4423 21.1213 13.0131 21.1978C12.5839 21.2743 12.0972 21.3394 11.553 21.393L10.7367 21.4733V21.4848H9.24212V21.4733L9.04668 21.4619C8.9164 21.4542 8.80908 21.4465 8.72477 21.4389C8.64047 21.4313 8.32238 21.3891 7.77053 21.3126C7.21868 21.2361 6.78564 21.1595 6.47138 21.083C6.15715 21.0065 5.6896 20.861 5.06877 20.6467C4.44794 20.4324 3.91679 20.2158 3.47531 19.9969C3.03537 19.7795 2.75944 19.6417 2.64753 19.5836C2.53716 19.5269 2.413 19.4565 2.27504 19.3723L2.06809 19.246L2.06352 19.2392L2.0566 19.2346L2.0497 19.23L2.0451 19.2231L2.02211 19.2116L1.99911 19.2001L1.99454 19.1932L1.98762 19.1886L1.98072 19.184L1.97612 19.1772L1.97154 19.1703L1.96462 19.1657H1.95312V19.1197L1.97612 19.1243L1.99911 19.1312L2.10258 19.1427C2.17157 19.1504 2.35935 19.1618 2.66593 19.1772C2.97253 19.1925 3.29826 19.1925 3.64316 19.1772C3.98807 19.1618 4.34065 19.1274 4.70087 19.0738C5.06111 19.0203 5.4865 18.9284 5.97702 18.7983C6.46757 18.6682 6.91824 18.5136 7.32907 18.3345C7.73836 18.1538 8.0296 18.0191 8.20283 17.9303C8.3745 17.8431 8.63663 17.6808 8.98919 17.4435L9.51805 17.0876L9.52265 17.0807L9.52954 17.0761L9.53647 17.0715L9.54104 17.0647L9.54564 17.0578L9.55254 17.0532L9.55946 17.0486L9.56404 17.0417L9.58703 17.0348L9.61002 17.0302L9.61462 17.0073L9.62152 16.9843L9.62844 16.9797L9.63302 16.9728L9.44907 16.9613C9.32644 16.9537 9.20763 16.946 9.09267 16.9384C8.9777 16.9307 8.79759 16.8963 8.55231 16.835C8.30706 16.7738 8.04264 16.682 7.75903 16.5595C7.47545 16.437 7.19953 16.2916 6.93126 16.1232C6.66301 15.9548 6.46909 15.8147 6.34952 15.703C6.23149 15.5928 6.07819 15.4367 5.88964 15.2346C5.70264 15.031 5.54014 14.822 5.40218 14.6077C5.26422 14.3934 5.13239 14.1462 5.00671 13.8661L4.81584 13.4482L4.80434 13.4137L4.79285 13.3793L4.78595 13.3563L4.78135 13.3333L4.81584 13.3379L4.85033 13.3448L5.10326 13.3793C5.2719 13.4022 5.53632 13.4099 5.89654 13.4022C6.25678 13.3946 6.50588 13.3793 6.64384 13.3563C6.7818 13.3333 6.86612 13.318 6.89677 13.3104L6.94276 13.2989L7.00024 13.2874L7.05772 13.2759L7.06232 13.2691L7.06922 13.2645L7.07614 13.2599L7.08072 13.253L7.03473 13.2415L6.98874 13.23L6.94276 13.2185L6.89677 13.2071L6.85078 13.1956C6.82013 13.1879 6.76649 13.1726 6.68982 13.1497C6.61319 13.1267 6.40624 13.0425 6.06899 12.8971C5.73177 12.7517 5.4635 12.61 5.26422 12.4723C5.06444 12.3341 4.87395 12.183 4.69397 12.0199C4.51462 11.8546 4.31766 11.6418 4.10303 11.3816C3.88843 11.1214 3.69683 10.819 3.52819 10.4746C3.35958 10.1302 3.23311 9.80105 3.1488 9.48723C3.06482 9.17525 3.00941 8.8563 2.98327 8.53431L2.94185 8.05211L2.96485 8.0567L2.98784 8.06359L3.01083 8.07507L3.03383 8.08655L3.05682 8.09803L3.07982 8.10951L3.43622 8.27025C3.67383 8.37741 3.96891 8.46926 4.32147 8.54579C4.67406 8.62232 4.88482 8.66443 4.9538 8.67208L5.05727 8.68356H5.26422L5.25964 8.67667L5.25272 8.67208L5.24582 8.66749L5.24122 8.6606L5.23665 8.65371L5.22973 8.64912L5.22283 8.64452L5.21823 8.63764L5.19524 8.62615L5.17224 8.61467L5.16767 8.60779L5.16074 8.60319L5.15385 8.5986L5.14925 8.59171L5.12625 8.58023L5.10326 8.56875L5.09868 8.56186C5.09409 8.55878 5.02816 8.50981 4.90092 8.41491C4.77521 8.31846 4.64339 8.19371 4.50542 8.04063C4.36746 7.88754 4.2295 7.72681 4.09154 7.55843C3.95332 7.38966 3.83022 7.2091 3.72364 7.01882C3.61635 6.82748 3.5029 6.58406 3.38333 6.28863C3.26531 5.99472 3.17563 5.69851 3.11431 5.40001C3.05301 5.1015 3.01851 4.80683 3.01083 4.51597C3.00318 4.22511 3.01083 3.97637 3.03383 3.76971C3.05682 3.56305 3.10281 3.3296 3.17179 3.06937C3.24077 2.80914 3.34043 2.5336 3.47071 2.24274L3.66615 1.80647L3.67765 1.77202L3.68915 1.73758L3.69607 1.73299L3.70065 1.7261L3.70524 1.71921L3.71214 1.71462L3.71906 1.71921L3.72364 1.7261L3.72824 1.73299L3.73514 1.73758L3.74206 1.74217L3.74663 1.74906L3.75123 1.75595L3.75813 1.76054L3.76963 1.7835L3.78112 1.80647L3.78804 1.81106L3.79262 1.81795L4.10303 2.16238C4.30998 2.392 4.55525 2.64841 4.83883 2.9316C5.12244 3.21479 5.27955 3.36175 5.3102 3.37247C5.34088 3.38471 5.37918 3.41991 5.42517 3.47809C5.47116 3.53474 5.62446 3.67022 5.88505 3.88452C6.14566 4.09882 6.48672 4.34759 6.90826 4.63078C7.32983 4.91397 7.79736 5.19335 8.31088 5.46889C8.82442 5.74443 9.37627 5.99318 9.96642 6.21515C10.5566 6.43713 10.9705 6.58254 11.2081 6.65143C11.4457 6.72032 11.8519 6.80833 12.4267 6.91549C13.0016 7.02266 13.4347 7.09154 13.7259 7.12215C14.0172 7.15276 14.2164 7.17037 14.3237 7.17496L14.4847 7.17955L14.4801 7.14511L14.4732 7.11067L14.4272 6.82364C14.3966 6.6323 14.3812 6.36441 14.3812 6.01998C14.3812 5.67555 14.408 5.35792 14.4617 5.06706C14.5154 4.7762 14.5958 4.48153 14.7031 4.18302C14.8104 3.88452 14.9154 3.64494 15.0181 3.46432C15.1224 3.28521 15.2588 3.08085 15.4274 2.85123C15.5961 2.62161 15.8145 2.38435 16.0827 2.13941C16.351 1.89448 16.6576 1.67634 17.0025 1.485C17.3474 1.29366 17.6655 1.14822 17.9567 1.04872C18.248 0.94923 18.4933 0.884156 18.6925 0.853547C18.8918 0.822939 18.9914 0.805327 18.9914 0.800735Z" fill="#414142"/>
</svg>
