<svg width="30" height="22" viewBox="0 0 30 22" fill="none" xmlns="http://www.w3.org/2000/svg">
<path d="M15.9902 21.0263L10.2354 20.9188C8.37214 20.8813 6.50423 20.9561 4.6775 20.5678C1.89862 19.9877 1.70175 17.1432 1.49575 14.7572C1.21191 11.4027 1.32179 7.9874 1.85745 4.66096C2.15984 2.79448 3.34989 1.68074 5.19025 1.55954C11.4028 1.1197 17.6567 1.17183 23.8555 1.37703C24.5102 1.39584 25.1694 1.49865 25.8149 1.61569C29.0014 2.18649 29.0791 5.40997 29.2857 8.12353C29.4917 10.8651 29.4047 13.6207 29.011 16.3436C28.6951 18.5981 28.0907 20.4887 25.5402 20.6712C22.3445 20.9099 19.2222 21.102 16.0176 21.0409C16.0177 21.0263 15.9993 21.0263 15.9902 21.0263ZM12.6069 15.3186C15.0151 13.9056 17.3774 12.5162 19.7718 11.1127C17.3591 9.69966 15.0014 8.31021 12.6069 6.90668V15.3186Z" fill="#414142"/>
</svg>
